<?xml version="1.0" encoding="UTF-8" standalone="no"?>
<!-- Created with Inkscape (http://www.inkscape.org/) -->

<svg
   width="297.03351"
   height="60.472443"
   viewBox="0 0 78.590117 16"
   version="1.1"
   id="svg1"
   xmlns="http://www.w3.org/2000/svg">
  <defs
     id="defs1" />
  <g
     id="layer1"
     transform="translate(-7.0070274,-11.84375)">
    <g
       id="g3"
       transform="translate(7.0070274,11.84375)">
      <path
         style="font-weight:100;font-size:14.8167px;font-family:Outfit;-inkscape-font-specification:'Outfit Thin';stroke-width:0.973"
         d="m 23.560899,12.852469 q -1.051985,0 -1.955804,-0.385234 -0.889002,-0.400051 -1.555754,-1.111253 -0.666751,-0.711201 -1.037169,-1.6446536 -0.370417,-0.9482688 -0.370417,-2.0298879 0,-1.0964358 0.355601,-2.0298879 0.370417,-0.9334521 1.037169,-1.629837 0.666751,-0.6963849 1.555753,-1.0816191 0.889002,-0.4000509 1.940988,-0.4000509 1.051986,0 1.940988,0.4000509 0.903818,0.3852342 1.555753,1.0816191 0.666752,0.6963849 1.037169,1.6446537 0.370418,0.9334521 0.370418,2.0298879 0,1.0816191 -0.370418,2.0298879 -0.355601,0.9334519 -1.022352,1.6446539 -0.666752,0.696385 -1.555754,1.096436 -0.874185,0.385234 -1.926171,0.385234 z m 5.452546,0.607485 -5.245112,-5.2451123 0.296334,-0.296334 5.245112,5.2451123 z m -5.482179,-1.066803 q 1.259419,0 2.252138,-0.622301 0.992719,-0.622302 1.57057,-1.689104 0.577852,-1.0668025 0.577852,-2.4003055 0,-0.9927189 -0.340784,-1.8372708 Q 27.265074,4.9848011 26.672406,4.347683 26.079738,3.7105649 25.279636,3.3549641 24.479535,2.9993633 23.531266,2.9993633 q -1.25942,0 -2.252139,0.6223014 -0.992718,0.6074847 -1.57057,1.6742871 -0.563034,1.0519857 -0.563034,2.3854887 0,0.9927189 0.325967,1.8520875 0.340784,0.859369 0.933452,1.511303 0.592668,0.637119 1.39277,0.992719 0.800102,0.355601 1.733554,0.355601 z m 9.467858,0.311151 -3.185591,-10.0160894 h 0.503768 l 2.978157,9.5715884 h -0.222251 l 2.978157,-9.5715884 h 0.459317 l 2.992974,9.5715884 h -0.237067 l 2.992973,-9.5715884 h 0.503768 L 39.577738,12.704302 H 39.162871 L 36.184714,3.162347 h 0.192617 l -2.96334,9.541955 z m 9.927183,0 L 47.0009,2.6882126 h 0.444501 L 51.49036,12.704302 H 50.971776 L 47.104617,3.1030802 h 0.22225 L 43.430075,12.704302 Z M 44.630228,9.4001777 V 8.9704934 h 5.171028 v 0.4296843 z m 8.104733,3.0374233 6.252648,-9.4826878 h 0.563034 l -6.252647,9.4826878 z m 0,0.266701 v -0.266701 l 0.385234,-0.162983 h 6.326731 v 0.429684 z M 52.957212,3.1178969 V 2.6882126 h 6.593431 v 0.2667006 l -0.400051,0.1629837 z m 7.704693,9.5864051 4.074593,-10.0160894 h 0.444501 L 69.225958,12.704302 H 68.707373 L 64.840214,3.1030802 h 0.222251 L 61.165673,12.704302 Z M 62.365826,9.4001777 V 8.9704934 h 5.171028 V 9.4001777 Z M 71.552179,7.9925912 V 7.5629069 h 3.289308 q 1.229786,0 1.866904,-0.6074847 0.637118,-0.6223014 0.637118,-1.6150203 0,-1.0075356 -0.637118,-1.6150203 Q 76.071273,3.1178969 74.841487,3.1178969 H 71.552179 V 2.6882126 h 3.215224 q 0.992719,0 1.674287,0.3407841 0.681569,0.3259674 1.037169,0.9334521 0.355601,0.592668 0.355601,1.3779531 0,0.7852851 -0.355601,1.3927698 -0.3556,0.592668 -1.037169,0.9334521 -0.681568,0.3259674 -1.674287,0.3259674 z M 71.315112,12.704302 V 2.6882126 h 0.474135 V 12.704302 Z m 6.637882,0 -4.015326,-4.9191446 0.518585,-0.0889 4.133859,5.0080446 z"
         id="path2"
         aria-label="QWAZAR" />
      <g
         id="g2">
        <circle
           style="fill:#3978d5;fill-opacity:1;stroke-width:0.866234"
           id="path1-1"
           cx="5"
           cy="5"
           r="5" />
        <circle
           style="fill:#d539b8;fill-opacity:1;stroke-width:0.866234"
           id="path1"
           cx="11"
           cy="11"
           r="5" />
      </g>
    </g>
  </g>
</svg>
